<svg xmlns="http://www.w3.org/2000/svg" viewBox="0 0 1000 2000">
  <!-- Background -->
  <rect width="100%" height="100%" fill="#1b4332"/>
  
  <!-- Organic flowing paths with smoother, more varied curves -->
  <path d="M300,0 C400,100 150,300 450,400 C750,500 250,700 550,800 C850,900 350,1100 650,1200 C850,1300 250,1500 450,1600 C650,1700 150,1900 300,2000" 
        fill="none" stroke="#2d6a4f" stroke-width="6" stroke-linecap="round"/>
  
  <path d="M303,0 C403,100 153,300 453,400 C753,500 253,700 553,800 C853,900 353,1100 653,1200 C853,1300 253,1500 453,1600 C653,1700 153,1900 303,2000" 
        fill="none" stroke="#40916c" stroke-width="4" stroke-linecap="round"/>
  
  <path d="M297,0 C397,100 147,300 447,400 C747,500 247,700 547,800 C847,900 347,1100 647,1200 C847,1300 247,1500 447,1600 C647,1700 147,1900 297,2000" 
        fill="none" stroke="#52b788" stroke-width="2" stroke-linecap="round"/>
</svg>